<?xml version="1.0" encoding="UTF-8"?>
<svg width="28px" height="33px" viewBox="0 0 28 33" version="1.1" xmlns="http://www.w3.org/2000/svg" xmlns:xlink="http://www.w3.org/1999/xlink">
    <!-- Generator: Sketch 50.2 (55047) - http://www.bohemiancoding.com/sketch -->
    <title>Page 1</title>
    <desc>Created with Sketch.</desc>
    <defs></defs>
    <g id="Page-1" stroke="none" stroke-width="1" fill="none" fill-rule="evenodd" opacity="0.6" stroke-linecap="round" stroke-linejoin="round">
        <g id="57消息中心" transform="translate(-1454.000000, -66.000000)" stroke="#666666" stroke-width="2">
            <path d="M1472.22299,85.6534255 C1472.0344,85.5919873 1470.84343,85.0550907 1471.58767,82.7931712 L1471.57735,82.7931712 C1473.51695,80.7960969 1474.9995,77.5807345 1474.9995,74.4164097 C1474.9995,69.5500176 1471.76252,67 1468.00123,67 C1464.23771,67 1461.01915,69.5500919 1461.01915,74.4164097 C1461.01915,77.5935868 1462.49353,80.8218014 1464.44472,82.8139725 C1465.20517,84.8086695 1463.84522,85.5491218 1463.56063,85.6534255 C1459.62116,87.0775723 1455,89.6738728 1455,92.236817 L1455,93.1970203 C1455,96.6889658 1461.77142,97.4827586 1468.03823,97.4827586 C1474.31425,97.4827586 1481,96.6889658 1481,93.1970203 L1481,92.236817 C1480.99993,89.596388 1476.35573,87.0210373 1472.22299,85.6534255 L1472.22299,85.6534255 Z" id="Page-1"></path>
        </g>
    </g>
</svg>