<?xml version="1.0" encoding="UTF-8"?>
<svg width="30px" height="30px" viewBox="0 0 30 30" version="1.1" xmlns="http://www.w3.org/2000/svg" xmlns:xlink="http://www.w3.org/1999/xlink">
    <!-- Generator: Sketch 50.2 (55047) - http://www.bohemiancoding.com/sketch -->
    <title>Group</title>
    <desc>Created with Sketch.</desc>
    <defs></defs>
    <g id="Page-1" stroke="none" stroke-width="1" fill="none" fill-rule="evenodd" stroke-linecap="round" stroke-linejoin="round">
        <g id="57消息中心" transform="translate(-1970.000000, -69.000000)" stroke="#333333" stroke-width="2">
            <g id="Group" transform="translate(1971.000000, 70.000000)">
                <path d="M21.3727506,3.8639983 C23.0851075,5.07176306 24.5082279,6.67697116 25.485482,8.50598232 C26.4982902,10.3976969 27.0344828,12.5334726 27.0344828,14.6856477 C27.0344828,16.4828248 26.6760601,18.2279098 25.969785,19.8697753 C25.2894547,21.4547254 24.3150832,22.8805052 23.0735765,24.1027399 C21.8330306,25.3259394 20.38877,26.283855 18.7773096,26.9571935 C17.1101159,27.6488607 15.3401039,28 13.5162805,28 L13.5153195,28 C11.692457,28 9.92052321,27.6478961 8.25525135,26.9523702 C6.64475184,26.2819257 5.20049125,25.3230454 3.95898447,24.1008106 C2.71747769,22.8766465 1.74310627,21.4518314 1.06181501,19.8668813 C0.357461704,18.2250158 0,16.4808954 0,14.6827537 C0,12.5315433 0.534270719,10.3957676 1.54707888,8.50308832 C2.52529397,6.67504183 3.94649252,5.06983372 5.65788848,3.86206897" id="Stroke-1"></path>
                <path d="M13.5172414,12.5517241 L13.5172414,0" id="Stroke-3"></path>
            </g>
        </g>
    </g>
</svg>