<?xml version="1.0" standalone="no"?><!DOCTYPE svg PUBLIC "-//W3C//DTD SVG 1.1//EN" "http://www.w3.org/Graphics/SVG/1.1/DTD/svg11.dtd"><svg t="1553678697498" class="icon" style="" viewBox="0 0 1024 1024" version="1.1" xmlns="http://www.w3.org/2000/svg" p-id="1919" xmlns:xlink="http://www.w3.org/1999/xlink" width="200" height="200"><defs><style type="text/css"></style></defs><path d="M958.70846 752.249783c0 52.616358-42.657542 95.2739-95.2739 95.2739L160.564417 847.523683c-52.617381 0-95.274924-42.657542-95.274924-95.2739L65.289494 269.292236c0-52.617381 42.657542-95.274924 95.274924-95.274924l702.869119 0c52.617381 0 95.2739 42.658565 95.2739 95.274924L958.707436 752.249783zM903.729288 269.292236c0-22.254863-18.040888-40.294728-40.295751-40.294728L160.564417 228.997508c-22.255887 0-40.294728 18.039865-40.294728 40.294728l0 482.957547c0 22.254863 18.039865 40.294728 40.294728 40.294728l702.869119 0c22.254863 0 40.295751-18.039865 40.295751-40.294728L903.729288 269.292236z" p-id="1920" fill="#d81e06"></path><path d="M780.024871 806.28956c-7.597025 0-13.745049-6.148024-13.745049-13.745049l0-35.731806c0-31.650861-26.38902-60.488653-54.671157-60.488653l-400.481114 0c-28.282137 0-53.40942 28.838815-53.40942 60.488653l0 35.731806c0 7.597025-6.161327 13.745049-13.745049 13.745049-7.597025 0-13.745049-6.148024-13.745049-13.745049l0-35.731806c0-46.864354 37.462217-87.97875 80.898495-87.97875l400.481114 0c43.423999 0 82.161255 41.114396 82.161255 87.97875l0 35.731806C793.76992 800.141536 787.608593 806.28956 780.024871 806.28956z" p-id="1921" fill="#d81e06"></path><path d="M675.448094 600.109734 347.288123 600.109734c-80.053244 0-145.180544-61.086264-145.180544-136.173402 0-7.598049 6.147-13.746072 13.745049-13.746072 7.583722 0 13.745049 6.148024 13.745049 13.746072 0 60.938907 51.691289 108.683305 117.690446 108.683305l328.159972 0c67.086931 0 118.321826-44.64378 118.321826-103.852276l0-11.355629c0-63.10013-55.623855-118.455879-118.321826-118.455879L347.288123 338.955852c-28.456099 0-53.945633 13.959943-70.308299 25.678846-6.187933 4.402263-14.778588 2.965541-19.180851-3.181459-4.41659-6.17463-2.993171-14.765285 3.181459-19.181875 28.173666-20.146852 58.013275-30.80561 86.307691-30.80561l328.159972 0c77.341482 0 145.8109 68.201312 145.8109 145.945977l0 11.355629C821.260018 543.639604 758.212076 600.109734 675.448094 600.109734z" p-id="1922" fill="#d81e06"></path><path d="M222.376205 432.271144c-1.489934 0-3.006474-0.2415-4.496407-0.751107-7.167237-2.483564-10.980076-10.308787-8.496511-17.49035 2.053776-5.919826 4.53734-11.758812 7.369851-17.342993 3.449565-6.765077 11.704576-9.462512 18.49626-5.999644 6.751774 3.435239 9.450233 11.717879 5.999644 18.482957-2.267647 4.455475-4.241604 9.113565-5.878894 13.852496C233.397213 428.700829 228.067834 432.271144 222.376205 432.271144z" p-id="1923" fill="#d81e06"></path><path d="M367.905696 548.96796c-45.945425 0-83.327824-37.381375-83.327824-83.327824 0-45.945425 37.382399-83.327824 83.327824-83.327824 45.946448 0 83.328847 37.382399 83.328847 83.327824C451.234543 511.586584 413.852144 548.96796 367.905696 548.96796zM367.905696 409.801387c-30.791284 0-55.837726 25.047466-55.837726 55.838749s25.047466 55.838749 55.837726 55.838749c30.792307 0 55.838749-25.047466 55.838749-55.838749S398.698003 409.801387 367.905696 409.801387z" p-id="1924" fill="#d81e06"></path><path d="M670.293701 548.96796c-45.945425 0-83.328847-37.381375-83.328847-83.327824 0-45.945425 37.382399-83.327824 83.328847-83.327824s83.327824 37.382399 83.327824 83.327824C753.621525 511.586584 716.240149 548.96796 670.293701 548.96796zM670.293701 409.801387c-30.792307 0-55.838749 25.047466-55.838749 55.838749s25.047466 55.838749 55.838749 55.838749 55.838749-25.047466 55.838749-55.838749S701.086008 409.801387 670.293701 409.801387z" p-id="1925" fill="#d81e06"></path></svg>