<?xml version="1.0" standalone="no"?><!DOCTYPE svg PUBLIC "-//W3C//DTD SVG 1.1//EN" "http://www.w3.org/Graphics/SVG/1.1/DTD/svg11.dtd"><svg t="1553678856201" class="icon" style="" viewBox="0 0 1024 1024" version="1.1" xmlns="http://www.w3.org/2000/svg" p-id="2467" xmlns:xlink="http://www.w3.org/1999/xlink" width="200" height="200"><defs><style type="text/css"></style></defs><path d="M455.089337 794.989189c0 67.905576-55.053873 122.952286-122.966613 122.952286l-1.476631 0c-67.912739 0-122.965589-55.04671-122.965589-122.952286L207.680505 147.474796c0-67.905576 55.05285-122.952286 122.965589-122.952286l1.476631 0c67.912739 0 122.966613 55.04671 122.966613 122.952286L455.089337 794.989189zM400.110165 147.474796c0-37.543058-30.436196-67.973114-67.986417-67.973114l-1.476631 0c-37.550221 0-67.986417 30.429033-67.986417 67.973114L262.6607 794.989189c0 37.543058 30.436196 67.973114 67.986417 67.973114l1.476631 0c37.550221 0 67.986417-30.429033 67.986417-67.973114L400.110165 147.474796z" p-id="2468" fill="#d81e06"></path><path d="M303.895847 258.186294c-7.597025 0-13.745049-6.148024-13.745049-13.745049l0-54.980195c0-7.597025 6.148024-13.745049 13.745049-13.745049 7.583722 0 13.745049 6.148024 13.745049 13.745049l0 54.980195C317.639872 252.03827 311.479569 258.186294 303.895847 258.186294z" p-id="2469" fill="#d81e06"></path><path d="M303.895847 299.420417c-7.597025 0-13.745049-6.147-13.745049-13.745049l0-5.691629c0-7.597025 6.148024-13.745049 13.745049-13.745049 7.583722 0 13.745049 6.148024 13.745049 13.745049l0 5.691629C317.639872 293.273417 311.479569 299.420417 303.895847 299.420417z" p-id="2470" fill="#d81e06"></path><path d="M784.96744 794.989189c0 67.905576-55.04671 122.952286-122.966613 122.952286l-1.475608 0c-67.918879 0-122.965589-55.04671-122.965589-122.952286L537.559631 147.474796c0-67.905576 55.04671-122.952286 122.965589-122.952286l1.475608 0c67.919902 0 122.966613 55.04671 122.966613 122.952286L784.96744 794.989189zM729.987245 147.474796c0-37.543058-30.430056-67.973114-67.986417-67.973114l-1.475608 0c-37.557384 0-67.986417 30.429033-67.986417 67.973114L592.538803 794.989189c0 37.543058 30.429033 67.973114 67.986417 67.973114l1.475608 0c37.556361 0 67.986417-30.429033 67.986417-67.973114L729.987245 147.474796z" p-id="2471" fill="#d81e06"></path></svg>