<?xml version="1.0" standalone="no"?><!DOCTYPE svg PUBLIC "-//W3C//DTD SVG 1.1//EN" "http://www.w3.org/Graphics/SVG/1.1/DTD/svg11.dtd"><svg t="1553678712696" class="icon" style="" viewBox="0 0 1024 1024" version="1.1" xmlns="http://www.w3.org/2000/svg" p-id="2103" xmlns:xlink="http://www.w3.org/1999/xlink" width="200" height="200"><defs><style type="text/css"></style></defs><path d="M588.083328 830.003658 259.620457 830.003658c-115.910916 0-210.216769-95.03547-210.216769-211.845872 0-72.838935 38.428218-141.815913 99.077529-179.948395 5.54325-60.367903 52.785204-108.8675 112.601544-116.322285C319.026452 194.363709 444.727339 112.890117 585.902662 112.890117c196.808388 0 356.921016 160.112628 356.921016 356.921016 0 192.650695-154.030096 351.85258-344.860329 358.280989C594.062506 829.65778 590.49526 830.003658 588.083328 830.003658zM276.056801 373.426945c-41.173748 0.025583-75.558883 34.411741-75.558883 76.676333l0.166799 2.629897c0.333598 10.07138-5.132904 19.451004-14.062274 24.133653-51.42523 26.944676-84.642772 82.410941-84.642772 141.289933 0 87.838557 70.721715 159.291936 157.661809 159.291936l321.238328 0c3.733021-1.411139 7.108908-1.731434 9.43079-1.731434C755.54841 773.548878 890.269741 636.325563 890.269741 469.811132c0-167.824263-136.543839-304.367079-304.368102-304.367079-125.239376 0-236.19749 75.199703-282.683221 191.573153-3.989871 9.994632-13.677511 16.525372-24.403806 16.525372C278.174022 373.555881 276.711717 373.46583 276.056801 373.426945z" p-id="2104" fill="#d81e06"></path><path d="M822.395888 462.125079c-7.249101 0-13.125949-6.620791-13.139252-13.882172-0.01228-6.903224-0.37146-14.164604-1.077541-20.862143-0.769526-7.211239 4.464685-13.869892 11.688203-14.627139 7.04444-0.820692 13.677511 4.387937 14.433734 11.599176 0.809435 7.569396 1.218758 16.089443 1.232061 23.890107 0.013303 7.262404-5.862521 13.882172-13.111622 13.882172C822.408167 462.125079 822.408167 462.125079 822.395888 462.125079z" p-id="2105" fill="#d81e06"></path><path d="M797.081339 361.494171c-4.644787 0-9.136078-2.463098-11.533684-6.813173-33.975812-61.920258-98.898451-100.373035-169.441087-100.373035-7.262404 0-13.139252-5.876847-13.139252-13.138228s5.876847-13.138228 13.139252-13.138228c80.139202 0 153.889903 43.688012 192.483896 113.99938 3.490497 6.363941 1.155313 14.356986-5.195326 17.847483C801.379225 360.969215 799.210839 361.494171 797.081339 361.494171z" p-id="2106" fill="#d81e06"></path><path d="M514.141268 697.643094c-31.190373 0-57.879222-16.603143-69.194942-45.549406-2.6432-6.760984-0.449231-14.382569 6.299473-17.025769 6.774287-2.6432 13.805424 0.692778 16.448624 7.453762 7.262404 18.605753 26.64894 28.843932 46.728254 28.843932 25.648147 0 50.078559-22.50455 50.078559-51.231825l0-52.899814c0-7.263427-3.388167-13.139252 3.875261-13.139252l57.7114 0c8.879228 0 15.204283-2.539846 17.359366-6.967692 2.400676-4.938476 0.063445-12.894681-6.107091-20.74651L537.646612 397.035642c-6.941086-8.852622-15.96153-13.779841-25.303292-13.779841l-0.01228 0c-8.789177 0-17.166985 4.516874-23.608697 12.727882l-99.514481 130.782625c-6.236028 7.955182-8.596795 15.755846-6.27389 20.515243 2.066055 4.273327 8.583492 6.813173 17.411555 6.813173l49.782823 0c7.262404 0 13.138228 5.875824 13.138228 13.139252 0 7.261381-5.876847 13.138228-13.138228 13.138228l-49.782823 0c-19.413142 0-34.360576-7.866155-41.044812-21.594831-6.953366-14.292518-3.63069-31.819706 9.109472-48.075949l99.514481-130.781602c11.650341-14.845103 27.380604-22.940478 44.407396-22.940478l0.01228 0c17.333784 0 34.130332 8.724709 46.049802 23.928992l99.680257 129.3326c12.548804 15.97381 15.948227 34.103726 9.007141 48.383964-6.723122 13.818727-21.671579 21.748327-40.993646 21.748327l-35.310204 0 0 39.761586C590.777693 663.590534 554.519908 697.643094 514.141268 697.643094z" p-id="2107" fill="#d81e06"></path><path d="M456.697975 616.502076c-3.412726 0-6.838755-1.449002-9.327436-3.810792-2.37407-2.50096-3.810792-5.91471-3.810792-9.327436s1.436722-6.838755 3.810792-9.327436c4.862751-4.863774 13.665231-4.863774 18.655895 0 2.360767 2.489704 3.810792 5.91471 3.810792 9.327436s-1.450025 6.826476-3.810792 9.327436C463.52445 615.053074 460.111724 616.502076 456.697975 616.502076z" p-id="2108" fill="#d81e06"></path></svg>